<?xml version="1.0" encoding="UTF-8" standalone="no"?>
<!-- Created with Inkscape (http://www.inkscape.org/) -->

<svg
   xmlns:dc="http://purl.org/dc/elements/1.1/"
   xmlns:cc="http://creativecommons.org/ns#"
   xmlns:rdf="http://www.w3.org/1999/02/22-rdf-syntax-ns#"
   xmlns:svg="http://www.w3.org/2000/svg"
   xmlns="http://www.w3.org/2000/svg"
   xmlns:sodipodi="http://sodipodi.sourceforge.net/DTD/sodipodi-0.dtd"
   xmlns:inkscape="http://www.inkscape.org/namespaces/inkscape"
   width="91.711639mm"
   height="27.703638mm"
   viewBox="0 0 91.711639 27.703638"
   version="1.1"
   id="svg4879"
   inkscape:version="0.92.1 r15371"
   sodipodi:docname="logo_big_white.svg">
  <defs
     id="defs4873">
    <clipPath
       id="clipPath4897"
       clipPathUnits="userSpaceOnUse">
      <path
         style="clip-rule:evenodd"
         inkscape:connector-curvature="0"
         id="path4895"
         d="M 0,1.2207e-4 H 720 V 540.00012 H 0 Z" />
    </clipPath>
    <linearGradient
       id="linearGradient4941"
       spreadMethod="pad"
       gradientUnits="userSpaceOnUse"
       y2="147.09"
       x2="413.88"
       y1="434.95001"
       x1="326.92001">
      <stop
         id="stop4903"
         offset="0"
         style="stop-opacity:1;stop-color:#0070c0" />
      <stop
         id="stop4905"
         offset="0.01"
         style="stop-opacity:1;stop-color:#0070c0" />
      <stop
         id="stop4907"
         offset="0.05"
         style="stop-opacity:1;stop-color:#1f497d" />
      <stop
         id="stop4909"
         offset="0.1"
         style="stop-opacity:1;stop-color:#a603ab" />
      <stop
         id="stop4911"
         offset="0.18"
         style="stop-opacity:1;stop-color:#e81766" />
      <stop
         id="stop4913"
         offset="0.25"
         style="stop-opacity:1;stop-color:#ff0000" />
      <stop
         id="stop4915"
         offset="0.32"
         style="stop-opacity:1;stop-color:#f48c32" />
      <stop
         id="stop4917"
         offset="0.405"
         style="stop-opacity:1;stop-color:#ffff00" />
      <stop
         id="stop4919"
         offset="0.47"
         style="stop-opacity:1;stop-color:#1a8d48" />
      <stop
         id="stop4921"
         offset="0.5"
         style="stop-opacity:1;stop-color:#1a8d48" />
      <stop
         id="stop4923"
         offset="0.53"
         style="stop-opacity:1;stop-color:#1a8d48" />
      <stop
         id="stop4925"
         offset="0.595"
         style="stop-opacity:1;stop-color:#ffff00" />
      <stop
         id="stop4927"
         offset="0.68"
         style="stop-opacity:1;stop-color:#f48c32" />
      <stop
         id="stop4929"
         offset="0.75"
         style="stop-opacity:1;stop-color:#ff0000" />
      <stop
         id="stop4931"
         offset="0.82"
         style="stop-opacity:1;stop-color:#e81766" />
      <stop
         id="stop4933"
         offset="0.9"
         style="stop-opacity:1;stop-color:#a603ab" />
      <stop
         id="stop4935"
         offset="0.95"
         style="stop-opacity:1;stop-color:#1f497d" />
      <stop
         id="stop4937"
         offset="0.99"
         style="stop-opacity:1;stop-color:#0070c0" />
      <stop
         id="stop4939"
         offset="1"
         style="stop-opacity:1;stop-color:#0070c0" />
    </linearGradient>
    <clipPath
       id="clipPath4959"
       clipPathUnits="userSpaceOnUse">
      <path
         style="clip-rule:evenodd"
         inkscape:connector-curvature="0"
         id="path4957"
         d="M -7.02e-7,540 H 720 V 1.2207e-4 H -7.02e-7" />
    </clipPath>
    <clipPath
       id="clipPath4969"
       clipPathUnits="userSpaceOnUse">
      <path
         style="clip-rule:evenodd"
         inkscape:connector-curvature="0"
         id="path4967"
         d="M -7.02e-7,540 H 720 V 1.2207e-4 H -7.02e-7" />
    </clipPath>
  </defs>
  <sodipodi:namedview
     id="base"
     pagecolor="#ffffff"
     bordercolor="#666666"
     borderopacity="1.0"
     inkscape:pageopacity="0.0"
     inkscape:pageshadow="2"
     inkscape:zoom="0.49497475"
     inkscape:cx="103.53885"
     inkscape:cy="-8.7694519"
     inkscape:document-units="mm"
     inkscape:current-layer="g4889"
     showgrid="false"
     fit-margin-top="0"
     fit-margin-left="0"
     fit-margin-right="0"
     fit-margin-bottom="0"
     inkscape:window-width="1366"
     inkscape:window-height="706"
     inkscape:window-x="-8"
     inkscape:window-y="-8"
     inkscape:window-maximized="1" />
  <metadata
     id="metadata4876">
    <rdf:RDF>
      <cc:Work
         rdf:about="">
        <dc:format>image/svg+xml</dc:format>
        <dc:type
           rdf:resource="http://purl.org/dc/dcmitype/StillImage" />
        <dc:title></dc:title>
      </cc:Work>
    </rdf:RDF>
  </metadata>
  <g
     inkscape:label="Layer 1"
     inkscape:groupmode="layer"
     id="layer1"
     transform="translate(-42.749617,-118.80944)">
    <g
       transform="matrix(0.35277777,0,0,-0.35277777,-34.395826,260.7143)"
       inkscape:label="tnomedialab_logo_white"
       id="g4889">
      <g
         id="g4901">
        <path
           inkscape:connector-curvature="0"
           id="path4943"
           style="fill:url(#linearGradient4941);fill-opacity:1;fill-rule:nonzero;stroke:none"
           d="m 218.68,385.66 0.06,1.43 0.23,1.65 0.38,1.59 0.54,1.55 0.69,1.48 0.79,1.35 0.93,1.3 1.08,1.21 1.13,1.06 1.29,1 1.34,0.84 1.42,0.71 1.52,0.59 1.6,0.43 1.63,0.28 1.69,0.11 227.06,0.01 1.43,-0.07 1.65,-0.23 1.59,-0.38 1.56,-0.54 1.47,-0.68 1.35,-0.8 1.3,-0.93 1.21,-1.07 1.06,-1.13 1,-1.29 0.84,-1.35 0.71,-1.41 0.59,-1.53 0.43,-1.6 0.28,-1.62 0.11,-1.69 0.01,-45.62 -0.07,-1.44 -0.22,-1.65 -0.38,-1.59 -0.54,-1.55 -0.67,-1.44 -0.83,-1.42 -0.91,-1.26 -1.08,-1.22 -1.13,-1.06 -1.29,-0.99 -1.35,-0.84 -1.41,-0.72 -1.53,-0.58 -1.59,-0.44 -1.63,-0.27 -1.69,-0.12 H 235.27 l -1.44,0.06 -1.65,0.23 -1.59,0.38 -1.55,0.54 -1.44,0.66 -1.41,0.83 -1.27,0.92 -1.22,1.08 -1.06,1.12 -0.99,1.29 -0.84,1.35 -0.71,1.42 -0.59,1.52 -0.44,1.6 -0.27,1.63 -0.12,1.68 z m 10.49,-45.08 0.01,-0.64 0.07,-0.62 0.12,-0.58 0.17,-0.56 0.25,-0.57 0.29,-0.51 0.31,-0.46 0.41,-0.48 0.39,-0.39 0.48,-0.39 0.45,-0.31 0.54,-0.28 0.53,-0.23 0.59,-0.17 0.6,-0.12 0.89,-0.05 226.52,-0.01 h 0.64 l 0.62,0.07 0.58,0.12 0.56,0.18 0.56,0.25 0.51,0.28 0.47,0.31 0.48,0.41 0.39,0.39 0.39,0.49 0.31,0.45 0.28,0.54 0.22,0.53 0.18,0.58 0.12,0.6 0.05,0.9 0.01,45.08 -0.01,0.63 -0.07,0.63 -0.12,0.57 -0.18,0.56 -0.24,0.57 -0.29,0.51 -0.31,0.47 -0.41,0.47 -0.39,0.4 -0.46,0.37 -0.5,0.33 -0.51,0.28 -0.53,0.22 -0.59,0.18 -0.6,0.11 -0.89,0.06 H 235.54 234.9 l -0.62,-0.07 -0.58,-0.12 -0.56,-0.18 -0.56,-0.25 -0.52,-0.28 -0.46,-0.31 -0.48,-0.41 -0.39,-0.39 -0.38,-0.46 -0.33,-0.51 -0.27,-0.5 -0.23,-0.54 -0.17,-0.58 -0.12,-0.6 -0.05,-0.89 z" />
      </g>
      <g
         aria-label="ME"
         transform="matrix(1,0,0,-1,234.72,340.7)"
         style="font-variant:normal;font-weight:normal;font-size:56.04000092px;font-family:Headline;-inkscape-font-specification:Headline;writing-mode:lr-tb;fill:#ffffff;fill-opacity:1;fill-rule:nonzero;stroke:none"
         id="text4947">
        <path
           d="m 23.64888,-4.3150801 q -0.2802,1.4010001 -1.51308,2.2976401 -1.23288,0.8406 -2.57784,0.8406 H 16.812 q -1.34496,0 -2.57784,-0.89664 -1.17684,-0.89664 -1.45704,-2.2416001 -0.11208,-0.5604 -0.22416,-1.1208 -0.11208,-0.5604 -0.22416,-1.1208 -0.44832,-2.07348 -0.89664,-4.1469599 -0.39228,-2.07348 -0.8406,-4.14696 -0.22416,-0.89664 -0.50436,-2.29764 v 13.3375199 q 0,1.7372401 -1.2328799,2.97012009 -1.23288,1.23288002 -2.97012,1.23288002 -1.73724,0 -2.9701201,-1.23288002 Q 1.6812,-2.12952 1.6812,-3.8667601 V -39.508201 q 0,-1.73724 1.23288,-2.91408 1.2889201,-1.23288 3.0261601,-1.23288 h 3.7546801 q 1.3449598,0 2.5217998,0.89664 1.23288,0.8406 1.51308,2.2416 0.11208,0.5604 0.22416,1.1208 0.11208,0.50436 0.22416,1.1208 0.44832,2.07348 0.8406,3.86676 0.44832,1.73724 0.89664,3.866761 0.5604,2.68992 1.1208,5.37984 0.5604,2.68992 1.1208,5.37984 0.05604,0.16812 0.05604,0.33624 0.05604,0.11208 0.05604,0.2802 0.50436,-2.29764 1.00872,-4.53924 0.50436,-2.29764 1.00872,-4.65132 l 2.01744,-8.686201 q 0.22416,-1.00872 0.39228,-1.9614 0.22416,-1.00872 0.44832,-1.9614 0.2802,-1.401 1.51308,-2.2416 1.23288,-0.8406 2.57784,-0.8406 h 3.866761 q 1.73724,0 2.91408,1.23288 1.23288,1.23288 1.23288,2.97012 v 36.0337209 q 0,1.7372401 -1.28892,2.97012009 -1.23288,1.23288002 -2.91408,1.23288002 -1.737241,0 -2.970121,-1.23288002 Q 26.84316,-2.12952 26.84316,-3.8667601 V -18.94152 q -0.16812,0.95268 -0.33624,1.45704 l -2.01744,9.2465999 q -0.22416,1.00872 -0.44832,2.01744 -0.16812,0.95268 -0.39228,1.90536 z"
           style=""
           id="path5015" />
        <path
           d="m 43.892121,-0.05604 q -1.73724,0 -2.97012,-1.23288 -1.17684,-1.28892 -1.17684,-3.0261601 V -38.891761 q 0,-1.73724 1.23288,-2.91408 1.28892,-1.23288 2.97012,-1.23288 h 14.62644 q 1.6812,0 2.91408,1.28892 1.23288,1.23288 1.23288,2.91408 0,1.73724 -1.28892,2.97012 -1.23288,1.23288 -2.97012,1.23288 h -10.31136 v 8.293921 h 9.63888 q 1.73724,0 2.97012,1.28892 1.23288,1.23288 1.17684,2.97012 0,1.73724 -1.23288,2.97012 -1.23288,1.17684 -2.97012,1.17684 h -9.58284 v 9.4707599 h 10.42344 q 1.6812,0 2.91408,1.28892 1.23288,1.23288 1.23288,2.91408 0,1.7372401 -1.28892,2.9701201 -1.23288,1.23288 -2.97012,1.23288 h -14.5704 z"
           style=""
           id="path5017" />
      </g>
      <g
         aria-label="IALAB"
         transform="matrix(1,0,0,-1,338.9,340.7)"
         style="font-variant:normal;font-weight:normal;font-size:56.04000092px;font-family:Headline;-inkscape-font-specification:Headline;writing-mode:lr-tb;fill:#ffffff;fill-opacity:1;fill-rule:nonzero;stroke:none"
         id="text4951">
        <path
           d="M 5.8842001,0 Q 4.0909201,0 2.85804,-1.23288 1.6812,-2.46576 1.6812,-4.2030001 V -39.732361 q 0,-1.73724 1.23288,-2.97012 1.2889201,-1.23288 3.0261601,-1.23288 1.73724,0.05604 2.91408,1.28892 1.2328799,1.23288 1.2328799,2.97012 v 35.5293609 q 0,0.8406 -0.3362398,1.6251601 -0.33624,0.78456 -0.9526801,1.34496 -0.5604,0.56039999 -1.34496,0.89664 Q 6.7248001,0 5.8842001,0 Z"
           style=""
           id="path5020" />
        <path
           d="M 20.4546,-0.2802 Q 18.94152,0.61644001 17.20428,0.11208 16.41972,-0.11208 15.74724,-0.56040001 15.1308,-1.06476 14.68248,-1.79328 13.84188,-3.3063601 14.2902,-5.0436001 l 0.67248,-3.19428 q 0.44832,-2.2415999 0.95268,-4.4271599 0.50436,-2.18556 0.95268,-4.37112 0.61644,-2.68992 1.17684,-5.37984 0.5604,-2.74596 1.17684,-5.43588 0.50436,-2.29764 0.95268,-4.539241 0.50436,-2.29764 1.00872,-4.59528 l 0.8406,-3.86676 q 0.2802,-1.401 1.51308,-2.2416 1.23288,-0.8406 2.57784,-0.8406 h 4.707361 q 1.34496,0 2.5218,0.89664 1.23288,0.8406 1.51308,2.18556 0.16812,0.8406 0.33624,1.6812 0.22416,0.78456 0.39228,1.56912 0.44832,2.18556 0.95268,4.42716 0.50436,2.18556 1.00872,4.371121 0.61644,2.68992 1.17684,5.43588 0.5604,2.68992 1.17684,5.37984 0.50436,2.29764 1.00872,4.53924 0.50436,2.2416 1.00872,4.5952799 0.22416,0.95268 0.44832,1.90536 0.22416,0.95268 0.44832,1.90536 0.33624,1.79328 -0.44832,3.1942801 -0.8406,1.51307999 -2.5218,1.9614 -0.8406,0.22416001 -1.6812,0.11208 -0.8406,-0.11208 -1.56912,-0.50436 -0.67248,-0.44832001 -1.23288,-1.06476 -0.50436,-0.67248 -0.67248,-1.51308 -0.22416,-0.7845601 -0.39228,-1.5691201 -0.16812,-0.8406 -0.33624,-1.62516 -0.11208,-0.61644 -0.2802,-1.1208 -0.11208,-0.5604 -0.22416,-1.17684 H 23.59284 q -0.11208,0.44832 -0.22416,0.8406 -0.05604,0.39228 -0.16812,0.8406 -0.22416,0.95268 -0.44832,1.9614 -0.16812,0.95268 -0.33624,1.9053601 -0.16812,0.78456 -0.72852,1.45704 -0.5604,0.61643999 -1.23288,1.06476 z m 7.06104,-26.3388 q -0.50436,2.5218 -1.06476,4.93152 -0.50436,2.40972 -1.06476,4.93152 h 6.220441 l -2.017441,-8.91036 q -0.2802,-1.28892 -0.5604,-2.57784 -0.2802,-1.34496 -0.5604,-2.633881 -0.2802,1.064761 -0.50436,2.129521 -0.16812,1.06476 -0.44832,2.12952 z"
           style=""
           id="path5022" />
        <path
           d="M 49.76352,0 Q 48.02628,0 46.7934,-1.23288 45.61656,-2.5218 45.61656,-4.2590401 V -39.396121 q 0,-1.73724 1.23288,-2.91408 1.28892,-1.23288 2.97012,-1.23288 1.79328,0 2.97012,1.23288 1.23288,1.23288 1.23288,2.97012 v 30.9340809 h 7.90164 q 1.73724,0 2.97012,1.23288 1.23288,1.23288 1.23288,2.97012 0,1.7372401 -1.28892,2.9701201 Q 63.6054,0 61.86816,0 H 49.76352 Z"
           style=""
           id="path5024" />
        <path
           d="m 74.869439,-0.2802 q -1.51308,0.89664001 -3.25032,0.39228 -0.78456,-0.22416 -1.45704,-0.67248001 -0.61644,-0.50435999 -1.06476,-1.23287999 -0.8406,-1.5130801 -0.39228,-3.2503201 l 0.67248,-3.19428 q 0.44832,-2.2415999 0.95268,-4.4271599 0.50436,-2.18556 0.95268,-4.37112 0.61644,-2.68992 1.17684,-5.37984 0.5604,-2.74596 1.17684,-5.43588 0.50436,-2.29764 0.95268,-4.539241 0.50436,-2.29764 1.00872,-4.59528 l 0.8406,-3.86676 q 0.2802,-1.401 1.51308,-2.2416 1.23288,-0.8406 2.57784,-0.8406 h 4.70736 q 1.34496,0 2.5218,0.89664 1.23288,0.8406 1.51308,2.18556 0.16812,0.8406 0.33624,1.6812 0.22416,0.78456 0.39228,1.56912 0.44832,2.18556 0.95268,4.42716 0.50436,2.18556 1.00872,4.371121 0.61644,2.68992 1.17684,5.43588 0.5604,2.68992 1.17684,5.37984 0.50436,2.29764 1.00872,4.53924 0.50436,2.2416 1.00872,4.5952799 0.22416,0.95268 0.44832,1.90536 0.22416,0.95268 0.44832,1.90536 0.33624,1.79328 -0.44832,3.1942801 -0.8406,1.51307999 -2.5218,1.9614 -0.8406,0.22416001 -1.6812,0.11208 -0.8406,-0.11208 -1.56912,-0.50436 -0.67248,-0.44832001 -1.23288,-1.06476 -0.50436,-0.67248 -0.67248,-1.51308 -0.22416,-0.7845601 -0.39228,-1.5691201 -0.16812,-0.8406 -0.33624,-1.62516 -0.11208,-0.61644 -0.2802,-1.1208 -0.11208,-0.5604 -0.22416,-1.17684 h -9.86304 q -0.11208,0.44832 -0.22416,0.8406 -0.05604,0.39228 -0.16812,0.8406 -0.22416,0.95268 -0.44832,1.9614 -0.16812,0.95268 -0.33624,1.9053601 -0.16812,0.78456 -0.72852,1.45704 -0.5604,0.61643999 -1.23288,1.06476 z m 7.06104,-26.3388 q -0.50436,2.5218 -1.06476,4.93152 -0.50436,2.40972 -1.06476,4.93152 h 6.22044 l -2.01744,-8.91036 q -0.2802,-1.28892 -0.5604,-2.57784 -0.2802,-1.34496 -0.5604,-2.633881 -0.2802,1.064761 -0.50436,2.129521 -0.16812,1.06476 -0.44832,2.12952 z"
           style=""
           id="path5026" />
        <path
           d="m 104.2344,0 q -1.73724,0 -2.97012,-1.23288 -1.23288,-1.28892 -1.23288,-3.0261601 V -38.723641 q 0,-1.73724 1.23288,-2.91408 1.28892,-1.23288 3.02616,-1.23288 h 6.05232 q 0.72852,0 1.401,0 0.72852,-0.05604 1.401,0 0.61644,0.05604 1.1208,0.11208 0.5604,0.05604 1.1208,0.16812 0.78456,0.16812 1.51308,0.44832 0.72852,0.2802 1.51308,0.61644 0.2802,0.11208 0.50436,0.2802 0.2802,0.11208 0.5604,0.2802 0.44832,0.33624 0.89664,0.67248 0.44832,0.33624 0.8406,0.78456 0.39228,0.44832 0.72852,0.95268 0.39228,0.44832 0.67248,1.00872 0.2802,0.61644 0.50436,1.17684 0.22416,0.5604 0.33624,1.23288 0.16812,1.28892 0.16812,2.40972 v 6.276481 q 0,0.44832 -0.056,0.8406 -0.056,0.39228 -0.16812,0.78456 -0.11208,0.61644 -0.39228,1.23288 -0.22416,0.5604 -0.50436,1.1208 -0.22416,0.50436 -0.61644,0.95268 0.11208,0.11208 0.16812,0.22416 0.056,0.11208 0.16812,0.22416 0.2802,0.44832 0.44832,0.95268 0.22416,0.44832 0.39228,0.89664 0.2802,0.67248 0.33624,1.45704 0.11208,0.72852 0.22416,1.45704 0.056,0.61644 0,1.28892 0,0.61644 0,1.23288 v 3.30636 q 0,0.8966398 0,1.7372399 0,0.8406 -0.22416,1.6812 -0.11208,0.5604 -0.33624,1.1208 -0.16812,0.50436 -0.44832,1.00872 -0.2802,0.39228 -0.5604,0.78456 -0.2802,0.33624 -0.5604,0.72852 -0.33624,0.3922801 -0.72852,0.7285201 -0.39228,0.2802 -0.8406,0.5604 -0.39228,0.33624 -1.06476,0.61644 -1.17684,0.61643999 -2.35368,0.95267999 Q 115.38636,-0.2802 114.15348,-0.11208 112.97664,0 111.7998,0 Z m 4.203,-8.4060001 h 1.06476 q 0.95268,0 1.90536,0.05604 1.00872,0 1.9614,-0.11208 0.8406,-0.16812 1.45704,-0.39228 0.11208,-0.05604 0.16812,-0.05604 0.11208,-0.05604 0.22416,-0.16812 V -16.2516 q -0.056,-0.11208 -0.056,-0.16812 0,-0.05604 -0.056,-0.16812 -0.22416,-0.11208 -0.39228,-0.22416 -0.39228,-0.11208 -0.78456,-0.16812 -0.33624,-0.11208 -0.78456,-0.22416 -0.5604,0 -0.8406,-0.05604 h -3.86676 z m 4.03488,-17.2603199 q 0.2802,0 0.50436,0 0.22416,0 0.44832,-0.05604 0.67248,-0.11208 1.1208,-0.22416 0.11208,-0.11208 0.39228,-0.22416 l 0.16812,-0.16812 q 0,-0.05604 0,-0.05604 0.056,-0.05604 0.056,-0.11208 0.056,-0.05604 0.056,-0.22416 0.056,-0.44832 0,-0.8406 0,-0.44832 0,-0.89664 v -3.082201 q 0,-0.44832 0,-0.95268 0.056,-0.50436 0,-0.95268 0,-0.11208 -0.056,-0.16812 v -0.05604 l -0.16812,-0.16812 q -0.16812,-0.05604 -0.50436,-0.2802 -0.2802,-0.11208 -0.61644,-0.16812 -0.33624,-0.05604 -0.61644,-0.16812 h -4.81944 v 8.798281 z"
           style=""
           id="path5028" />
      </g>
      <g
         id="g4953">
        <g
           clip-path="url(#clipPath4959)"
           id="g4955">
          <path
             inkscape:connector-curvature="0"
             id="path4961"
             style="fill:#0070c0;fill-opacity:1;fill-rule:evenodd;stroke:none"
             d="M 303.3,381.42 333.13,362.25 303.3,343.09 Z" />
        </g>
      </g>
      <g
         id="g4963">
        <g
           clip-path="url(#clipPath4969)"
           id="g4965">
          <path
             inkscape:connector-curvature="0"
             id="path4971"
             style="fill:none;stroke:#0070c0;stroke-width:4;stroke-linecap:butt;stroke-linejoin:round;stroke-miterlimit:10;stroke-dasharray:none;stroke-opacity:1"
             d="M 303.3,381.42 333.13,362.25 303.3,343.09 Z" />
        </g>
      </g>
    </g>
  </g>
</svg>
